<mxfile host="app.diagrams.net" modified="2023-02-16T10:39:26.438Z" agent="5.0 (Windows NT 10.0; Win64; x64) AppleWebKit/537.36 (KHTML, like Gecko) Chrome/109.0.0.0 Safari/537.36 Edg/109.0.1518.78" etag="7-UDcoAcIP_gAQO1iEl6" version="20.8.20" type="github">
  <diagram name="Page-1" id="e7e014a7-5840-1c2e-5031-d8a46d1fe8dd">
    <mxGraphModel dx="1689" dy="963" grid="1" gridSize="10" guides="1" tooltips="1" connect="1" arrows="1" fold="1" page="1" pageScale="1" pageWidth="1169" pageHeight="826" background="none" math="0" shadow="0">
      <root>
        <mxCell id="0" />
        <mxCell id="1" parent="0" />
        <mxCell id="2" value="Airflow DAG" style="swimlane;whiteSpace=wrap" parent="1" vertex="1">
          <mxGeometry x="164.5" y="128" width="280" height="570" as="geometry" />
        </mxCell>
        <mxCell id="5" value="" style="ellipse;shape=startState;fillColor=#000000;strokeColor=#ff0000;" parent="2" vertex="1">
          <mxGeometry x="100" y="40" width="30" height="30" as="geometry" />
        </mxCell>
        <mxCell id="6" value="" style="edgeStyle=elbowEdgeStyle;elbow=horizontal;verticalAlign=bottom;endArrow=open;endSize=8;strokeColor=#FF0000;endFill=1;rounded=0" parent="2" source="5" target="7" edge="1">
          <mxGeometry x="100" y="40" as="geometry">
            <mxPoint x="115" y="110" as="targetPoint" />
          </mxGeometry>
        </mxCell>
        <mxCell id="7" value="Download From &#xa;Source" style="" parent="2" vertex="1">
          <mxGeometry x="60" y="110" width="110" height="50" as="geometry" />
        </mxCell>
        <mxCell id="8" value="Transform to &#xa;FHIR Resources" style="" parent="2" vertex="1">
          <mxGeometry x="60" y="182" width="110" height="50" as="geometry" />
        </mxCell>
        <mxCell id="9" value="" style="endArrow=open;strokeColor=#FF0000;endFill=1;rounded=0" parent="2" edge="1">
          <mxGeometry relative="1" as="geometry">
            <mxPoint x="115.5" y="162" as="sourcePoint" />
            <mxPoint x="115.5" y="182" as="targetPoint" />
          </mxGeometry>
        </mxCell>
        <mxCell id="10" value="Build FHIR Bundle" style="" parent="2" vertex="1">
          <mxGeometry x="60" y="252" width="110" height="50" as="geometry" />
        </mxCell>
        <mxCell id="eZQgq3BQvjqBqlgC4xst-42" value="Build FHIR Bundle" style="" vertex="1" parent="2">
          <mxGeometry x="60" y="322" width="110" height="50" as="geometry" />
        </mxCell>
        <mxCell id="eZQgq3BQvjqBqlgC4xst-44" value="Upload to &#xa;Syndication" style="" vertex="1" parent="2">
          <mxGeometry x="60" y="393" width="110" height="50" as="geometry" />
        </mxCell>
        <mxCell id="eZQgq3BQvjqBqlgC4xst-58" value="" style="endArrow=open;strokeColor=#FF0000;endFill=1;rounded=0" edge="1" parent="2">
          <mxGeometry relative="1" as="geometry">
            <mxPoint x="114.88" y="232" as="sourcePoint" />
            <mxPoint x="114.88" y="252" as="targetPoint" />
          </mxGeometry>
        </mxCell>
        <mxCell id="3" value="Syndication Server" style="swimlane;whiteSpace=wrap" parent="1" vertex="1">
          <mxGeometry x="445" y="128" width="280" height="570" as="geometry" />
        </mxCell>
        <mxCell id="eZQgq3BQvjqBqlgC4xst-52" value="Create New Feed" style="" vertex="1" parent="3">
          <mxGeometry x="75.5" y="393" width="110" height="50" as="geometry" />
        </mxCell>
        <mxCell id="eZQgq3BQvjqBqlgC4xst-53" value="Point Alias at Feed" style="" vertex="1" parent="3">
          <mxGeometry x="75.5" y="462" width="110" height="48" as="geometry" />
        </mxCell>
        <mxCell id="eZQgq3BQvjqBqlgC4xst-55" value="" style="endArrow=open;strokeColor=#FF0000;endFill=1;rounded=0" edge="1" parent="3">
          <mxGeometry relative="1" as="geometry">
            <mxPoint x="130.26" y="443" as="sourcePoint" />
            <mxPoint x="130.26" y="463" as="targetPoint" />
          </mxGeometry>
        </mxCell>
        <mxCell id="4" value="Ontoserver" style="swimlane;whiteSpace=wrap" parent="1" vertex="1">
          <mxGeometry x="725" y="128" width="280" height="570" as="geometry" />
        </mxCell>
        <mxCell id="eZQgq3BQvjqBqlgC4xst-43" value="Vaidate" style="" vertex="1" parent="4">
          <mxGeometry x="90" y="322" width="110" height="50" as="geometry" />
        </mxCell>
        <mxCell id="eZQgq3BQvjqBqlgC4xst-47" value="" style="ellipse;shape=endState;fillColor=#000000;strokeColor=#ff0000" vertex="1" parent="4">
          <mxGeometry x="125" y="532" width="30" height="30" as="geometry" />
        </mxCell>
        <mxCell id="eZQgq3BQvjqBqlgC4xst-59" value="Read from &#xa;Alias/Feed" style="" vertex="1" parent="4">
          <mxGeometry x="90" y="462" width="110" height="48" as="geometry" />
        </mxCell>
        <mxCell id="eZQgq3BQvjqBqlgC4xst-63" value="" style="endArrow=open;strokeColor=#FF0000;endFill=1;rounded=0" edge="1" parent="4">
          <mxGeometry relative="1" as="geometry">
            <mxPoint x="139.86" y="510" as="sourcePoint" />
            <mxPoint x="139.86" y="530" as="targetPoint" />
          </mxGeometry>
        </mxCell>
        <mxCell id="20" value="" style="endArrow=open;strokeColor=#FF0000;endFill=1;rounded=0;entryX=0.014;entryY=0.54;entryDx=0;entryDy=0;entryPerimeter=0;" parent="1" target="eZQgq3BQvjqBqlgC4xst-43" edge="1">
          <mxGeometry relative="1" as="geometry">
            <mxPoint x="340" y="475" as="sourcePoint" />
            <mxPoint x="810" y="475" as="targetPoint" />
            <Array as="points">
              <mxPoint x="390" y="475" />
              <mxPoint x="580" y="475" />
            </Array>
          </mxGeometry>
        </mxCell>
        <mxCell id="eZQgq3BQvjqBqlgC4xst-41" value="Call&amp;nbsp; $validate operation" style="edgeLabel;html=1;align=center;verticalAlign=middle;resizable=0;points=[];" vertex="1" connectable="0" parent="20">
          <mxGeometry x="-0.5016" y="-1" relative="1" as="geometry">
            <mxPoint x="126" y="-1" as="offset" />
          </mxGeometry>
        </mxCell>
        <mxCell id="eZQgq3BQvjqBqlgC4xst-45" value="" style="endArrow=classic;html=1;rounded=0;entryX=1.05;entryY=0.8;entryDx=0;entryDy=0;entryPerimeter=0;strokeColor=#FF0000;" edge="1" parent="1" target="eZQgq3BQvjqBqlgC4xst-42">
          <mxGeometry width="50" height="50" relative="1" as="geometry">
            <mxPoint x="810" y="490" as="sourcePoint" />
            <mxPoint x="610" y="540" as="targetPoint" />
          </mxGeometry>
        </mxCell>
        <mxCell id="eZQgq3BQvjqBqlgC4xst-46" value="Valid" style="edgeLabel;html=1;align=center;verticalAlign=middle;resizable=0;points=[];" vertex="1" connectable="0" parent="eZQgq3BQvjqBqlgC4xst-45">
          <mxGeometry x="0.0638" y="2" relative="1" as="geometry">
            <mxPoint as="offset" />
          </mxGeometry>
        </mxCell>
        <mxCell id="eZQgq3BQvjqBqlgC4xst-50" value="" style="endArrow=open;strokeColor=#FF0000;endFill=1;rounded=0" edge="1" parent="1">
          <mxGeometry relative="1" as="geometry">
            <mxPoint x="280.5" y="430" as="sourcePoint" />
            <mxPoint x="280.5" y="450" as="targetPoint" />
          </mxGeometry>
        </mxCell>
        <mxCell id="eZQgq3BQvjqBqlgC4xst-51" value="" style="endArrow=open;strokeColor=#FF0000;endFill=1;rounded=0" edge="1" parent="1">
          <mxGeometry relative="1" as="geometry">
            <mxPoint x="281.5" y="499" as="sourcePoint" />
            <mxPoint x="281.5" y="519" as="targetPoint" />
          </mxGeometry>
        </mxCell>
        <mxCell id="eZQgq3BQvjqBqlgC4xst-54" value="" style="endArrow=classic;html=1;rounded=0;strokeColor=#FF0000;exitX=1.005;exitY=0.46;exitDx=0;exitDy=0;exitPerimeter=0;" edge="1" parent="1" source="eZQgq3BQvjqBqlgC4xst-44">
          <mxGeometry width="50" height="50" relative="1" as="geometry">
            <mxPoint x="560" y="590" as="sourcePoint" />
            <mxPoint x="520" y="544" as="targetPoint" />
          </mxGeometry>
        </mxCell>
        <mxCell id="eZQgq3BQvjqBqlgC4xst-60" value="" style="endArrow=classic;startArrow=classic;html=1;rounded=0;strokeColor=#FF0000;entryX=-0.036;entryY=0.493;entryDx=0;entryDy=0;entryPerimeter=0;exitX=1.027;exitY=0.493;exitDx=0;exitDy=0;exitPerimeter=0;" edge="1" parent="1" source="eZQgq3BQvjqBqlgC4xst-53" target="eZQgq3BQvjqBqlgC4xst-59">
          <mxGeometry width="50" height="50" relative="1" as="geometry">
            <mxPoint x="510" y="480" as="sourcePoint" />
            <mxPoint x="560" y="430" as="targetPoint" />
          </mxGeometry>
        </mxCell>
      </root>
    </mxGraphModel>
  </diagram>
</mxfile>
